<svg xmlns="http://www.w3.org/2000/svg" viewBox="0 0 400 96"><path d="M204.64,18.92c1.06.62,1.36,1.32.92,2.12a1.06,1.06,0,0,1-.59,1,1.18,1.18,0,0,1-1.13.07.93.93,0,0,1-.33-.07,1.22,1.22,0,0,0-.33-.07,84.71,84.71,0,0,0-18-6.35,122.33,122.33,0,0,0-18.79-2.77,167.59,167.59,0,0,0-21.5.06,170.9,170.9,0,0,0-21.36,2.85A174.33,174.33,0,0,0,102,21,181.12,181.12,0,0,0,81.33,29q-4.89,2.25-9.45,4.76T62.81,39.3c-1.58,1-3.11,2-4.56,3.1s-2.93,2.28-4.43,3.51a42.48,42.48,0,0,0-6,6.75,8.06,8.06,0,0,0-.46.79,3.73,3.73,0,0,1-.73.93l-.26.66a.38.38,0,0,0-.13.26v.27a2,2,0,0,0-.33.72,1.18,1.18,0,0,1-.34.6.55.55,0,0,1-.06.33c0,.05,0,.16.06.33-.17.18-.26.31-.26.4a4.22,4.22,0,0,0-.26,1.32,1.62,1.62,0,0,1,.13.66v.27a1,1,0,0,1,.06.66.74.74,0,0,0,.2.66.49.49,0,0,1,.07.4.21.21,0,0,0,.06.26v.27a5.82,5.82,0,0,0,.67,1.19.42.42,0,0,0,.26.4l.27.26a4.51,4.51,0,0,0,1.58,2.12l.13.13.27.26a.76.76,0,0,0,.53.53,2.84,2.84,0,0,0,1.19.66,14.4,14.4,0,0,0,1.26.93c.39.27.77.53,1.12.79l.27.14h.26c0,.09.09.13.26.13a1.94,1.94,0,0,0,.53.39,5.44,5.44,0,0,0,1.46.53,43.09,43.09,0,0,1,7.94-7.54,87,87,0,0,1,9.26-5.95,114.11,114.11,0,0,1,11.44-5q5.89-2.19,12-3.9,13.64-3.84,27.39-6.29a144.33,144.33,0,0,1,28.05-2.18q3.57.13,7.08.33a56.1,56.1,0,0,1,7.07.86,48.28,48.28,0,0,1,5.36,1.12,21.18,21.18,0,0,1,5.36,2.32,10.23,10.23,0,0,1,4,3.84A9.62,9.62,0,0,1,181.88,54a11.37,11.37,0,0,1-1.39,5.49A15.57,15.57,0,0,1,177,63.9,39.7,39.7,0,0,1,166.47,70a108.18,108.18,0,0,1-11.71,3.83,119.61,119.61,0,0,1-14.09,2.85q-7.08,1-14.22,1.65-7.55.68-14.75,1c-4.81.23-9.73.42-14.75.6q-5.16.14-10.32.2a70.34,70.34,0,0,1-10.19-.6Q72.6,79,68.77,78.26a75.67,75.67,0,0,1-7.41-1.79c-1.68-.44-3.22-.93-4.63-1.45a31,31,0,0,0-6.48,14.42,1.13,1.13,0,0,1-.4,1.12,1.33,1.33,0,0,1-1.19.33,1.64,1.64,0,0,1-1.19-.53,1.24,1.24,0,0,1-.4-1.19,34.77,34.77,0,0,1,2.31-8,41.53,41.53,0,0,1,4.17-7.49,38.5,38.5,0,0,1-4.89-2.78,28.89,28.89,0,0,1-4.3-4.11,9.19,9.19,0,0,1-2.19-5.3,11.32,11.32,0,0,1,.73-6.69,20.82,20.82,0,0,1,3.51-5.63,46.89,46.89,0,0,1,7.67-7.75A79.3,79.3,0,0,1,63,35.24a79.38,79.38,0,0,1,9.12-5.5q4.77-2.46,9.79-4.71a188,188,0,0,1,42.74-13A213.75,213.75,0,0,1,146.09,9.4a137.57,137.57,0,0,1,21.77.13,117.06,117.06,0,0,1,18.85,2.92A85.92,85.92,0,0,1,204.64,18.92Zm-142,49.35a25,25,0,0,0-1.92,1.85c-.66.71-1.3,1.41-1.92,2.12h.27l3.5,1.25a27.66,27.66,0,0,0,3.51,1,1.58,1.58,0,0,1,1.06.26h.66c.35.09.64.16.86.2l1,.2a11.21,11.21,0,0,0,1.85.33c.53,0,1.15.11,1.86.2,1.23.18,2.44.33,3.64.46s2.4.29,3.63.46a36.8,36.8,0,0,0,5,.2q2.52-.06,5.16-.06,3.7,0,7.41-.14l7.41-.26q7.41-.27,14.55-.8T134.78,74q6.75-.79,13.3-2A88.92,88.92,0,0,0,161,68.4a48.35,48.35,0,0,0,11.11-5,27.82,27.82,0,0,0,4-3.44,8.77,8.77,0,0,0,2.31-4.49,6.72,6.72,0,0,0-.53-5,8.76,8.76,0,0,0-3.37-3.18,18.36,18.36,0,0,0-4.9-1.78q-2.71-.6-4.83-1a115.08,115.08,0,0,0-28.17-.53q-7.15.66-14.09,1.85t-14,2.91Q102.23,50.15,96.22,52t-12,4.1a94.82,94.82,0,0,0-11.38,5.16A56.81,56.81,0,0,0,62.68,68.27Z" fill="#c9cacc"/><path d="M212.18,49a1.65,1.65,0,0,1-1.06,2.12,53.41,53.41,0,0,1-5.82,2.18A16.5,16.5,0,0,1,199,54a7.53,7.53,0,0,1-.73,3.7A19.71,19.71,0,0,1,196.3,61a10.84,10.84,0,0,1-3.51,3.11,5,5,0,0,1-4.69.2,4.81,4.81,0,0,1-3.18-3.44,6,6,0,0,1,0-3,13.73,13.73,0,0,1,1.19-2.91,22.07,22.07,0,0,1,3.71-4.5,17,17,0,0,1,2.25-1.92A15.31,15.31,0,0,1,194.71,47a1.29,1.29,0,0,1,1.26.13,2.29,2.29,0,0,1,.86,1.06,1.31,1.31,0,0,1-.4,1.59,2.6,2.6,0,0,1,.66.53,11.72,11.72,0,0,0,5,.26,23.79,23.79,0,0,0,4-1.12c1.27-.49,2.58-1,3.9-1.53a1.43,1.43,0,0,1,1.26.07A2,2,0,0,1,212.18,49Zm-16.54,5.3a1.81,1.81,0,0,0-.27-1.2l-1.58-.79-.4-.4a5.27,5.27,0,0,1-.6.53l-.59.53a16,16,0,0,0-3,3.44c-.18.35-.35.69-.53,1a3.75,3.75,0,0,0-.4,1.13,5.17,5.17,0,0,0-.2.86,1.27,1.27,0,0,0,.07.73.27.27,0,0,0,.06.19.27.27,0,0,1,.07.2l.13.27.13.13.14.13c0,.09,0,.13.13.13s.13,0,.13.07.05.07.13.07l.4.13h.93a4.84,4.84,0,0,0,1.45-.79,7.16,7.16,0,0,0,2.65-2.92c.26-.52.5-1,.73-1.58A7.26,7.26,0,0,0,195.64,54.25Z" fill="#c9cacc"/><path d="M235.86,15a2.15,2.15,0,0,1,1.52.27,2.56,2.56,0,0,1,.92,1.12,4.75,4.75,0,0,1,.4,1.52,3.19,3.19,0,0,1-.2,1.46A21.7,21.7,0,0,1,237.31,22c-.44.84-.88,1.65-1.32,2.45a58.93,58.93,0,0,1-3.44,5.09c-1.24,1.63-2.51,3.29-3.84,5Q225,39,221,43.4a66.44,66.44,0,0,1-8.6,7.93c-.35,1-.68,2-1,3.05s-.6,2.11-.86,3.17a18,18,0,0,0-.6,2.71,5.28,5.28,0,0,0,.33,2.72.78.78,0,0,0,.27.53l.26.13H211v.13h1.2a7.69,7.69,0,0,0,2.24-1.19L216.54,61c.71-.7,1.43-1.39,2.18-2.05s1.48-1.34,2.19-2q2.24-2.25,4.43-4.5a46.38,46.38,0,0,1,4.7-4.23,1.76,1.76,0,0,1,2.38,0,1.8,1.8,0,0,1,.46,1.12,1.53,1.53,0,0,1-.46,1.26,49.5,49.5,0,0,0-4.44,3.9l-4.16,4.17a34.83,34.83,0,0,1-4.1,4c-.71.62-1.42,1.21-2.12,1.79a16.14,16.14,0,0,1-2.25,1.52,8.67,8.67,0,0,1-2.25,1,5.43,5.43,0,0,1-2.51.07,4.34,4.34,0,0,1-2.05-1.06A6.29,6.29,0,0,1,207.15,64a8.79,8.79,0,0,1-.33-5.56c.48-1.94,1-3.79,1.65-5.56a72.32,72.32,0,0,1,4.63-11.38A108,108,0,0,1,219.32,31c1.14-1.59,2.31-3.17,3.5-4.76a42.88,42.88,0,0,1,3.91-4.5,45.53,45.53,0,0,1,4.23-4l2.25-1.65A6.34,6.34,0,0,1,235.86,15Zm-.66,3.84A29.31,29.31,0,0,0,231,22.1a38.64,38.64,0,0,0-3.7,4c-1.33,1.5-2.56,3-3.71,4.63s-2.25,3.22-3.31,4.89a94.34,94.34,0,0,0-5,9q3.43-3.45,6.61-7,2.65-3,5.16-6.16a80.26,80.26,0,0,0,4.77-6.55q.92-1.32,1.65-2.58c.48-.83,1-1.74,1.39-2.71Z" fill="#c9cacc"/><path d="M256.1,15a2.15,2.15,0,0,1,1.52.27,2.56,2.56,0,0,1,.92,1.12,4.5,4.5,0,0,1,.4,1.52,3.19,3.19,0,0,1-.2,1.46A21.7,21.7,0,0,1,257.55,22c-.44.84-.88,1.65-1.32,2.45a58.93,58.93,0,0,1-3.44,5.09c-1.24,1.63-2.51,3.29-3.84,5q-3.7,4.5-7.67,8.87a66.44,66.44,0,0,1-8.6,7.93c-.35,1-.68,2-1,3.05s-.6,2.11-.86,3.17a19.27,19.27,0,0,0-.6,2.71,5.28,5.28,0,0,0,.33,2.72.78.78,0,0,0,.27.53l.26.13h.13v.13h1.2a7.87,7.87,0,0,0,2.25-1.19L236.78,61c.71-.7,1.43-1.39,2.18-2.05s1.48-1.34,2.19-2c1.5-1.5,3-3,4.43-4.5a47.49,47.49,0,0,1,4.7-4.23,1.65,1.65,0,0,1,2.84,1.12,1.53,1.53,0,0,1-.46,1.26,48,48,0,0,0-4.43,3.9l-4.17,4.17a34.07,34.07,0,0,1-4.1,4c-.71.62-1.42,1.21-2.12,1.79a16.14,16.14,0,0,1-2.25,1.52,8.52,8.52,0,0,1-2.25,1,5.43,5.43,0,0,1-2.51.07,4.39,4.39,0,0,1-2.05-1.06A6.47,6.47,0,0,1,227.39,64a8.79,8.79,0,0,1-.33-5.56c.48-1.94,1-3.79,1.65-5.56a72.32,72.32,0,0,1,4.63-11.38A110,110,0,0,1,239.56,31c1.15-1.59,2.32-3.17,3.51-4.76a41.65,41.65,0,0,1,3.9-4.5,46.83,46.83,0,0,1,4.23-4l2.25-1.65A6.39,6.39,0,0,1,256.1,15Zm-.66,3.84a30.44,30.44,0,0,0-4.24,3.31,38.64,38.64,0,0,0-3.7,4q-2,2.25-3.71,4.63c-1.14,1.58-2.25,3.22-3.3,4.89a92.37,92.37,0,0,0-5,9q3.43-3.45,6.61-7,2.66-3,5.16-6.16A78,78,0,0,0,252,24.87q.92-1.32,1.65-2.58c.48-.83.95-1.74,1.39-2.71Z" fill="#c9cacc"/><path d="M267.61,48.29a1.44,1.44,0,0,1,1.19-.46,1.7,1.7,0,0,1,1.06.46,2.13,2.13,0,0,1,.53,1.13,1.36,1.36,0,0,1-.4,1.25c-1.41,1.5-2.76,3-4,4.57s-2.54,3.06-3.78,4.56l-1.32,1.85a14.59,14.59,0,0,1-1.59,1.86,16.27,16.27,0,0,1-2,1.65,2.53,2.53,0,0,1-2.38.46,2,2,0,0,1-1.46-1.52,5,5,0,0,1,0-2.31c.09-.36.16-.64.2-.86s.11-.55.2-1a5,5,0,0,1,.07-.92c0-.27.11-.57.19-.93a2.82,2.82,0,0,1,.14-.92c-.27.26-.56.52-.86.79s-.6.53-.86.79c-.71.71-1.39,1.37-2.06,2s-1.34,1.23-2.05,1.85a21.09,21.09,0,0,1-2.24,1.72,5.66,5.66,0,0,1-2.65.93,2.34,2.34,0,0,1-2.12-.8,2.84,2.84,0,0,1-.66-2.25,8.7,8.7,0,0,1,1-2.58c.49-.83.95-1.65,1.39-2.44s1.08-1.59,1.66-2.39,1.17-1.58,1.78-2.38a42.55,42.55,0,0,1,3.71-4,16.85,16.85,0,0,1,2.18-1.85A8.25,8.25,0,0,1,255,45.38a1.46,1.46,0,0,1,1.26.27,2.19,2.19,0,0,1,.66,1,1.59,1.59,0,0,1-.07,1.19,1.3,1.3,0,0,1-1.06.73,5.06,5.06,0,0,0-1.72.86,12.66,12.66,0,0,0-1.45,1.25,16.05,16.05,0,0,0-1.52,1.46c-.49.53-.95,1.06-1.39,1.59q-1.45,1.71-2.71,3.5A36.55,36.55,0,0,0,244.72,61l-.26.53,1.19-.79a42.71,42.71,0,0,0,3.24-3,42.71,42.71,0,0,1,3.24-3l1.06-1.06a7.12,7.12,0,0,1,1.45-1.12,4.8,4.8,0,0,1,1.52-.6,1.27,1.27,0,0,1,1.26.53,1.82,1.82,0,0,1,.6,1.46c0,.53-.12,1.06-.2,1.59-.18,1-.31,1.91-.4,2.84s-.22,1.87-.4,2.84a10.83,10.83,0,0,0,1.26-1.52q.6-.85,1.26-1.65c1.32-1.67,2.64-3.33,4-5S266.2,49.79,267.61,48.29ZM243.27,61.92h0Z" fill="#c9cacc"/><path d="M289.83,48a1.36,1.36,0,0,1,.86.92,1.56,1.56,0,0,1-.2,1.33q-1.85,2.64-3.77,5.09T283,60.46l-.13.14-.13.13v.13c-.27.35-.66.84-1.19,1.45a22.26,22.26,0,0,1-1.72,1.79,12.63,12.63,0,0,1-2,1.52,2.72,2.72,0,0,1-1.85.53,1.85,1.85,0,0,1-1.19-.26h-.13a1.92,1.92,0,0,1-.8-1.72v-.4c.09,0,.14,0,.14-.13l.53-3.71a3.64,3.64,0,0,0,.13-1V57a.51.51,0,0,1-.13-.39c-.18-.35-.36-.53-.53-.53a1.12,1.12,0,0,0-.53.13A5.5,5.5,0,0,0,272,57.29a11.73,11.73,0,0,0-1.39,1.06c-.39.35-.81.75-1.25,1.19L268,60.86c-.44.44-.92.88-1.45,1.32s-1,.84-1.46,1.19a4.65,4.65,0,0,1-2.51,1.33h-.4a.78.78,0,0,1-.53-.27,1.18,1.18,0,0,1-.79-.66.54.54,0,0,1-.13-.4c-.09,0-.13-.08-.13-.26v-.4a5,5,0,0,1,.46-1.78c.31-.75.68-1.57,1.12-2.45l1.59-3.18c.62-1.23,1.26-2.49,1.92-3.77S267,49,267.74,47.76q1.85-3.82,3.57-7.74t3.31-7.87a1.48,1.48,0,0,1,2-1.06,1.61,1.61,0,0,1,1.06.73,1.27,1.27,0,0,1,.13,1.26c-1.05,2.73-2.16,5.44-3.3,8.13s-2.38,5.32-3.71,7.88q-1.18,2.25-2.51,4.56a50.54,50.54,0,0,0-2.38,4.7l.53-.53c.17-.18.35-.36.53-.53.88-.88,1.8-1.74,2.77-2.58A10.23,10.23,0,0,1,273,52.79a6.32,6.32,0,0,1,2.51-.26A2.86,2.86,0,0,1,277,54.11a4.15,4.15,0,0,1,.66,1.59c.09.53.18,1.1.27,1.72v1.72a7.69,7.69,0,0,1-.07,1,5.42,5.42,0,0,0-.07.86v.27l.27-.27c.44-.53.88-1,1.32-1.45a9.36,9.36,0,0,0,1.19-1.46c1.24-1.59,2.43-3.15,3.57-4.7s2.3-3.15,3.44-4.82a2,2,0,0,1,1-.73A1.45,1.45,0,0,1,289.83,48Z" fill="#c9cacc"/><path d="M304.78,48.29a1.44,1.44,0,0,1,1.19-.46,1.67,1.67,0,0,1,1.06.46,2.13,2.13,0,0,1,.53,1.13,1.34,1.34,0,0,1-.4,1.25c-1.41,1.5-2.75,3-4,4.57s-2.54,3.06-3.77,4.56L298,61.65a16.42,16.42,0,0,1-1.59,1.86,15.69,15.69,0,0,1-2,1.65,2.52,2.52,0,0,1-2.38.46,2,2,0,0,1-1.46-1.52,5.29,5.29,0,0,1,0-2.31c.09-.36.16-.64.2-.86s.11-.55.2-1a5,5,0,0,1,.07-.92c0-.27.11-.57.2-.93a2.84,2.84,0,0,1,.13-.92c-.27.26-.55.52-.86.79s-.6.53-.86.79c-.71.71-1.39,1.37-2.05,2s-1.35,1.23-2,1.85a22.29,22.29,0,0,1-2.25,1.72,5.59,5.59,0,0,1-2.65.93,2.32,2.32,0,0,1-2.11-.8,2.84,2.84,0,0,1-.66-2.25,8.19,8.19,0,0,1,1-2.58c.48-.83.95-1.65,1.39-2.44s1.08-1.59,1.65-2.39,1.17-1.58,1.79-2.38a41.27,41.27,0,0,1,3.7-4,17.55,17.55,0,0,1,2.18-1.85,8.25,8.25,0,0,1,2.58-1.19,1.46,1.46,0,0,1,1.26.27,2.12,2.12,0,0,1,.66,1,1.64,1.64,0,0,1-.06,1.19,1.3,1.3,0,0,1-1.06.73,5.06,5.06,0,0,0-1.72.86,12.77,12.77,0,0,0-1.46,1.25,16.05,16.05,0,0,0-1.52,1.46c-.49.53-.95,1.06-1.39,1.59q-1.46,1.71-2.71,3.5A36.55,36.55,0,0,0,281.89,61l-.26.53,1.19-.79a40.9,40.9,0,0,0,3.24-3c1-1,2.1-2.07,3.24-3,.27-.26.62-.61,1.06-1.06a7.18,7.18,0,0,1,1.46-1.12,4.71,4.71,0,0,1,1.52-.6,1.28,1.28,0,0,1,1.26.53,1.81,1.81,0,0,1,.59,1.46c-.05.53-.11,1.06-.2,1.59-.18,1-.31,1.91-.39,2.84s-.23,1.87-.4,2.84a10.83,10.83,0,0,0,1.26-1.52c.39-.57.81-1.12,1.25-1.65,1.33-1.67,2.65-3.33,4-5S303.37,49.79,304.78,48.29ZM280.44,61.92h0Z" fill="#c9cacc"/><path d="M330.58,15a2.12,2.12,0,0,1,1.52.27,2.58,2.58,0,0,1,.93,1.12,4.49,4.49,0,0,1,.39,1.52,3.18,3.18,0,0,1-.19,1.46A25.1,25.1,0,0,1,332,22c-.45.84-.89,1.65-1.33,2.45a56.73,56.73,0,0,1-3.44,5.09c-1.23,1.63-2.51,3.29-3.83,5-2.48,3-5,6-7.68,8.87a65.79,65.79,0,0,1-8.6,7.93c-.35,1-.68,2-1,3.05s-.59,2.11-.86,3.17a20.79,20.79,0,0,0-.6,2.71,5.28,5.28,0,0,0,.34,2.72.76.76,0,0,0,.26.53l.27.13h.13v.13h1.19a7.87,7.87,0,0,0,2.25-1.19L311.26,61c.71-.7,1.44-1.39,2.19-2.05s1.47-1.34,2.18-2q2.25-2.25,4.43-4.5a47.49,47.49,0,0,1,4.7-4.23,1.65,1.65,0,0,1,2.84,1.12,1.49,1.49,0,0,1-.46,1.26,48,48,0,0,0-4.43,3.9l-4.17,4.17a34.07,34.07,0,0,1-4.1,4c-.71.62-1.41,1.21-2.12,1.79a15,15,0,0,1-2.25,1.52,8.38,8.38,0,0,1-2.25,1,5.43,5.43,0,0,1-2.51.07,4.43,4.43,0,0,1-2.05-1.06A6.47,6.47,0,0,1,301.87,64a8.93,8.93,0,0,1-.33-5.56q.73-2.91,1.65-5.56a72.32,72.32,0,0,1,4.63-11.38A110,110,0,0,1,314,31c1.15-1.59,2.32-3.17,3.51-4.76a41.65,41.65,0,0,1,3.9-4.5,47,47,0,0,1,4.24-4c.7-.53,1.45-1.08,2.24-1.65A6.45,6.45,0,0,1,330.58,15Zm-.66,3.84a29.78,29.78,0,0,0-4.23,3.31,37.65,37.65,0,0,0-3.71,4c-1.32,1.5-2.56,3-3.7,4.63S316,33.92,315,35.59a94.52,94.52,0,0,0-5,9q3.44-3.45,6.62-7,2.64-3,5.16-6.16a80.17,80.17,0,0,0,4.76-6.55c.61-.88,1.17-1.74,1.65-2.58a28.53,28.53,0,0,0,1.39-2.71Z" fill="#c9cacc"/><path d="M350.82,15a2.12,2.12,0,0,1,1.52.27,2.58,2.58,0,0,1,.93,1.12,4.75,4.75,0,0,1,.4,1.52,3.32,3.32,0,0,1-.2,1.46A23.28,23.28,0,0,1,352.28,22c-.45.84-.89,1.65-1.33,2.45a56.73,56.73,0,0,1-3.44,5.09c-1.23,1.63-2.51,3.29-3.83,5Q340,39,336,43.4a65.79,65.79,0,0,1-8.6,7.93c-.35,1-.68,2-1,3.05s-.59,2.11-.86,3.17a19.24,19.24,0,0,0-.59,2.71,5.17,5.17,0,0,0,.33,2.72.8.8,0,0,0,.26.53l.27.13H326v.13h1.19a7.87,7.87,0,0,0,2.25-1.19L331.51,61c.7-.7,1.43-1.39,2.18-2.05s1.47-1.34,2.18-2q2.25-2.25,4.43-4.5a47.49,47.49,0,0,1,4.7-4.23,1.76,1.76,0,0,1,2.38,0,1.7,1.7,0,0,1,.46,1.12,1.49,1.49,0,0,1-.46,1.26,49.36,49.36,0,0,0-4.43,3.9l-4.17,4.17a34.07,34.07,0,0,1-4.1,4c-.71.62-1.41,1.21-2.12,1.79a15,15,0,0,1-2.25,1.52,8.46,8.46,0,0,1-2.24,1,5.47,5.47,0,0,1-2.52.07,4.43,4.43,0,0,1-2.05-1.06A6.66,6.66,0,0,1,322.11,64a8.93,8.93,0,0,1-.33-5.56q.74-2.91,1.66-5.56a70.46,70.46,0,0,1,4.63-11.38A107.85,107.85,0,0,1,334.28,31c1.15-1.59,2.32-3.17,3.51-4.76a41.65,41.65,0,0,1,3.9-4.5,47,47,0,0,1,4.24-4q1.05-.8,2.25-1.65A6.35,6.35,0,0,1,350.82,15Zm-.66,3.84a29.78,29.78,0,0,0-4.23,3.31,38.73,38.73,0,0,0-3.71,4c-1.32,1.5-2.56,3-3.7,4.63s-2.25,3.22-3.31,4.89a94.52,94.52,0,0,0-5,9q3.44-3.45,6.62-7,2.64-3,5.16-6.16a80.17,80.17,0,0,0,4.76-6.55q.93-1.32,1.65-2.58a28.53,28.53,0,0,0,1.39-2.71Z" fill="#c9cacc"/><path d="M355.19,48.29a1.44,1.44,0,0,1,1.19-.46,2,2,0,0,1,1.12.46,1.6,1.6,0,0,1,.53,1.13,1.49,1.49,0,0,1-.46,1.25c-1.24,1.33-2.43,2.69-3.57,4.1s-2.34,2.83-3.58,4.24a35.9,35.9,0,0,1-3.7,3.7A13.4,13.4,0,0,1,345,64.17a2.73,2.73,0,0,1-2,.53,2.57,2.57,0,0,1-2.12-1,3.09,3.09,0,0,1-.66-2.32,9.49,9.49,0,0,1,.46-2c.22-.61.42-1.23.6-1.85.7-1.76,1.39-3.48,2.05-5.16a51,51,0,0,1,2.31-5,1.23,1.23,0,0,1,.93-.8,2.31,2.31,0,0,1,1.32.13,1.75,1.75,0,0,1,.53,2.39c-1.23,2.64-2.43,5.51-3.57,8.59a14.27,14.27,0,0,0-1.19,3.44,4.35,4.35,0,0,0,1.19-1,15.83,15.83,0,0,1,1.19-1.33q.79-.8,1.59-1.65c.53-.57,1.06-1.17,1.58-1.79q1.45-1.84,2.91-3.57T355.19,48.29Zm-5.82-9.66a2.36,2.36,0,0,1-.93-.66,1.37,1.37,0,0,1-.13-1.32c.17-1.15.83-1.54,2-1.19a.28.28,0,0,1,.2.06.26.26,0,0,0,.2.07.78.78,0,0,1,.66.4q.27.27.27.39a1.14,1.14,0,0,1,.13,1.2q0,.39-.66,1.05a2.25,2.25,0,0,1-.93.14h-.4A.51.51,0,0,1,349.37,38.63Z" fill="#c9cacc"/></svg>