<svg xmlns="http://www.w3.org/2000/svg" xmlns:xlink="http://www.w3.org/1999/xlink" width="100%" height="100%" fill-rule="evenodd" stroke-linejoin="round" stroke-miterlimit="1.414" clip-rule="evenodd" version="1.1" viewBox="0 0 2500 600" xml:space="preserve"><path fill="#c9cacc" fill-rule="nonzero" d="M704.367,32.97c-10.049,-1.779 -28.409,8.299 -42.05,16.599c-68.801,43.87 -129.892,99.597 -185.561,158.881c-8.894,9.486 -17.788,19.564 -26.682,29.049c-28.462,0.59 -56.33,1.18 -84.199,1.18c-52.773,-0.59 -106.138,-1.18 -158.91,-1.18c-25.497,-0.592 -50.401,0 -75.898,0c-22.532,-0.592 -45.064,-1.185 -67.596,2.36c-10.673,1.77 -21.346,4.719 -30.812,9.438c-5.899,2.949 -11.211,8.878 -10.618,15.992c1.18,13.042 17.119,20.749 27.199,25.492c39.135,18.378 81.827,27.271 123.334,37.349c37.948,9.485 77.083,18.378 115.032,29.049c16.009,5.336 32.612,10.671 48.621,17.192c-16.602,20.75 -33.205,41.499 -49.807,62.249c-8.301,10.671 -17.196,21.935 -25.497,32.606c-2.965,2.964 -3.558,7.114 0,10.078c2.372,2.964 7.708,3.557 10.08,0c26.683,-32.606 52.773,-66.398 79.455,-99.597c15.417,7.114 30.834,14.821 45.064,24.306c16.01,10.672 30.834,22.528 43.879,36.756c15.416,16.6 27.275,35.571 37.948,55.135c13.638,25.492 23.716,52.762 34.334,80.033c1.179,3.557 4.728,5.928 8.88,5.336c4.152,-1.186 6.524,-5.336 5.338,-9.486c-4.152,-11.264 -7.71,-23.121 -10.083,-35.57c-2.366,-11.857 -2.366,-24.307 -1.776,-36.164c1.183,-25.492 6.521,-50.391 13.045,-74.697c12.456,-48.613 31.435,-96.04 51.601,-142.282c1.78,-4.743 3.559,-8.893 5.338,-13.042l0.593,0c0,-1.186 0.593,-1.779 1.187,-2.965c2.965,-6.521 5.931,-12.449 8.303,-18.971l0.593,0c0,0 0,-0.592 0.593,-1.185c20.166,-1.186 40.925,-2.961 61.091,-4.729c4.152,-0.589 6.524,-5.304 5.931,-8.84c-1.186,-4.142 -4.745,-5.921 -8.897,-5.921c-17.2,1.779 -34.4,3.557 -51.007,4.743c3.558,-7.707 7.117,-14.821 10.676,-21.935c11.269,-21.935 22.538,-43.278 34.4,-64.62c6.524,-10.671 12.455,-21.342 18.98,-32.013l0.593,-0.593c0.593,-1.779 1.186,-2.964 2.372,-4.743l4.152,-6.521c2.372,-4.15 34.328,-51.577 34.328,-51.577c3.547,-7.114 6.511,-15.414 -3.547,-17.192Zm-358.652,328.952c-27.869,-11.264 -57.516,-20.157 -87.164,-27.864c-40.913,-10.671 -81.827,-19.563 -122.74,-30.235c-23.125,-5.928 -46.25,-12.449 -68.189,-21.342c-8.895,-3.557 -21.939,-8.892 -29.055,-15.414c-0.593,-0.593 -1.186,-1.185 -1.186,-1.778l-0.593,0l0,-0.593c0.593,-0.593 1.186,-1.186 0.593,-0.593c7.709,-5.928 18.382,-7.707 27.276,-9.485c21.939,-4.141 44.471,-2.962 66.41,-2.372c25.497,0 50.401,-0.59 75.898,0c26.089,0 52.772,0 79.455,0.593c49.807,0 100.208,0.593 150.016,0c-31.426,35.571 -61.074,72.327 -90.721,109.083Zm225.856,-99.597c-21.352,46.241 -39.739,93.668 -54.566,142.874c-7.092,24.307 -12.991,49.206 -15.94,74.698c-1.18,8.893 -1.777,17.785 -2.37,26.678c-8.894,-20.157 -20.16,-39.721 -33.205,-57.506c-24.311,-32.606 -56.923,-56.912 -93.093,-75.29c-4.15,-1.779 -8.301,-3.558 -12.452,-5.929c31.427,-39.127 62.853,-77.662 96.651,-115.604c40.321,-0.59 80.574,-1.769 120.906,-3.539c-1.779,4.132 -4.152,8.875 -5.931,13.618Zm90.153,-170.071c-6.524,11.264 -13.049,21.935 -19.573,33.199c-20.759,34.977 -39.738,71.14 -57.532,107.897c-20.165,1.185 -40.331,1.778 -60.497,2.371c-17.748,0.593 -36.1,1.186 -53.888,1.778c62.785,-69.362 131.586,-133.981 211.656,-183.187c1.779,-0.593 2.965,-1.779 4.152,-2.372c-1.78,3.558 -3.559,7.115 -5.339,10.672c-5.931,10.078 -13.048,19.563 -18.979,29.642Z"/><path fill="#c9cacc" fill-rule="nonzero" d="M732.846,290.262c-13.017,13.636 -26.071,27.271 -39.717,40.313c-5.934,5.929 -12.461,12.45 -19.581,17.786c-5.34,5.335 -11.866,10.078 -18.986,11.856c-3.56,1.183 -6.527,1.183 -10.087,0.593c-2.967,-1.186 -4.154,-2.964 -5.934,-5.928c-2.963,-5.929 -3.553,-14.228 -2.373,-21.342c2.967,-16.6 14.24,-30.828 24.327,-43.278c12.46,-14.821 25.513,-29.049 36.194,-45.056c4.153,-6.521 -4.154,-13.042 -10.087,-10.078c-13.054,6.521 -25.514,13.635 -37.38,21.935c1.78,-2.964 2.966,-6.521 4.153,-9.485c27.887,-60.47 56.367,-120.347 86.543,-179.631c1.779,-3.557 1.186,-8.3 -2.357,-10.078c-3.536,-1.779 -8.251,-1.186 -10.019,2.371c-35.007,67.584 -67.047,136.946 -98.454,205.716c-2.36,5.928 -4.72,11.264 -7.67,16.599c-5.339,7.707 -10.088,16.007 -11.868,25.492c0,0.593 0,1.186 0,1.779c-20.776,46.241 -40.958,91.816 -61.644,138.058c-1.778,3.557 -1.185,7.706 2.948,10.078c2.947,1.778 8.253,0.593 10.021,-2.964c24.337,-54.542 48.675,-109.602 73.523,-164.143c4.143,-5.336 9.483,-10.671 14.824,-14.821c3.56,-3.557 7.713,-5.928 11.273,-8.893c-3.56,4.15 -7.12,8.3 -10.087,12.45c-11.273,14.228 -22.5,28.456 -27.81,46.242c-4.145,15.413 -2.364,38.517 13.57,47.367c17.207,8.878 36.194,-3.54 48.654,-14.761c10.087,-8.893 19.58,-18.378 29.073,-27.864c10.087,-10.078 20.13,-19.563 29.58,-29.642c6.522,-7.114 -4.146,-17.785 -10.629,-10.671Z"/><path fill="#c9cacc" fill-rule="nonzero" d="M825.883,290.25c-21.343,17.183 -43.279,34.366 -65.802,51.549c-1.77,1.185 -4.13,2.963 -5.9,4.148c3.54,-5.926 6.49,-12.443 7.08,-18.961c0.593,-7.703 -1.18,-14.221 -7.08,-17.776c-4.13,-2.37 -9.459,-2.37 -14.856,-3.555c7.776,-8.888 14.856,-17.776 21.346,-27.256c5.333,-7.703 -2.36,-14.222 -10.03,-8.888c-6.519,4.74 -11.906,11.258 -16.629,18.368c-2.362,3.556 -4.723,6.518 -7.085,10.073c-0.59,0.593 -1.18,1.778 -1.771,2.37c0.015,0 -7.099,9.481 -1.171,15.999c4.15,5.332 17.193,3.555 21.343,6.517c0.593,0.593 1.183,1.185 0.593,0.593c0.59,1.185 0.59,1.185 0.59,2.37c-0.59,1.777 -0.59,2.37 -0.59,2.37c0,0.593 0,1.185 0,2.37c-0.593,2.37 -2.371,5.925 -4.15,8.888c-2.964,5.925 -7.707,11.85 -12.45,17.776c-10.079,13.035 -23.122,23.701 -34.979,35.551c-1.778,1.778 -2.964,4.148 -2.964,6.518c0,1.185 0,2.37 1.186,4.147c1.185,1.186 2.371,1.778 4.15,1.778c2.371,0.593 4.743,-0.592 6.521,-1.778c2.964,-2.962 6.522,-5.332 9.486,-8.295c7.114,-5.925 14.821,-11.258 21.936,-17.183c11.264,-8.295 22.474,-17.183 34.311,-26.071c21.936,-16.591 43.872,-33.774 65.215,-51.55c8.3,-6.517 0,-17.183 -8.3,-10.072Z"/><path fill="#c9cacc" fill-rule="nonzero" d="M926.669,289.077c-3.557,-2.372 -7.708,-0.593 -10.079,2.371c-10.079,14.821 -20.75,28.42 -31.421,42.618c-2.965,4.755 -7.708,8.321 -11.265,13.076c-0.593,0.595 -1.183,1.189 -1.183,1.189c0,0 0,-0.594 0,-1.189c0,-2.377 0.59,-5.349 0.59,-8.321c0,-2.378 0,-4.755 0,-7.727c-0.59,-5.318 -1.179,-10.044 -4.129,-14.771c-1.18,-2.954 -3.539,-5.908 -6.489,-7.09c-3.539,-0.593 -7.686,0 -11.243,1.182c-10.672,3.545 -19.565,12.407 -27.272,20.088c-1.778,1.185 -2.964,2.968 -4.743,4.752c6.522,-14.205 14.822,-27.8 21.936,-41.436c11.857,-23.121 21.912,-47.427 31.35,-71.733c1.776,-3.557 -1.769,-8.3 -5.309,-8.893c-4.129,-1.186 -7.668,1.186 -8.848,4.743c-9.486,23.713 -19.564,47.427 -30.829,69.955c-5.928,11.264 -12.45,22.524 -17.785,33.75c0,0 -14.229,26.096 -14.229,33.228c0,0.595 0,1.189 0,1.784c0,0.594 0,1.188 0.593,1.188c0,0.595 0,1.189 0.593,1.783c0.593,1.178 1.778,2.355 3.557,2.944c0.593,0.589 1.779,1.178 2.371,1.178l1.779,0c7.114,-1.178 17.786,-11.254 17.786,-11.254c4.743,-3.566 8.3,-7.727 12.45,-11.888c3.557,-3.566 7.114,-7.133 11.857,-10.101c1.778,-1.772 4.15,-3.545 6.521,-4.727c1.186,-0.59 3.557,-1.181 4.743,1.773c0,0.591 0,1.182 0.593,1.773l0,8.31c0,1.189 0,2.972 -0.593,4.755c0,0 -1.778,12.482 -2.371,16.643c0,0.594 0,0.594 -0.593,0.594l0,1.767c0,2.943 1.186,5.887 3.557,7.653l0.59,0c1.18,1.177 3.539,1.177 5.309,1.177c10.034,1.186 25.448,-17.729 30.191,-23.673l0,-0.594c0.593,0 0.593,-0.595 0.593,-0.595l0.593,-0.594c11.264,-15.443 23.121,-30.214 33.793,-45.61c2.371,-3.557 0.593,-8.3 -2.964,-10.078Z"/><path fill="#c9cacc" fill-rule="nonzero" d="M993.662,290.262c-12.45,13.636 -24.308,28.418 -36.165,43.216c-4.15,4.759 -7.114,10.113 -11.264,14.277c1.186,-8.328 2.371,-16.657 3.557,-25.529c0.593,-4.728 1.779,-9.456 -1.778,-13.593c-6.497,-8.293 -18.898,5.91 -23.641,10.047c-10.078,8.864 -18.971,18.367 -29.05,27.291c-1.778,1.189 -3.557,2.379 -5.335,3.569c0.592,-1.19 0.592,-1.785 1.185,-2.38c6.522,-11.898 14.229,-22.57 22.529,-32.617c4.15,-4.728 8.3,-9.46 13.043,-13.61c4.15,-3.557 8.874,-7.707 14.182,-9.485c9.458,-2.371 5.308,-16.6 -3.539,-14.228c-8.272,2.371 -15.386,7.707 -21.315,13.635c-5.928,5.336 -11.264,11.264 -16.6,17.778c-5.335,7.092 -10.671,14.184 -15.414,21.275c-4.15,7.139 -9.486,14.873 -10.671,22.597c-0.593,7.668 4.742,14.159 12.45,13.567c8.3,-0.59 16.007,-6.489 21.935,-11.798c6.522,-5.329 12.45,-11.278 18.379,-17.227c2.371,-2.38 5.336,-4.759 7.698,-7.139c-0.59,1.785 -0.59,2.975 -0.59,4.165c-0.59,2.974 -1.18,5.354 -1.18,8.328c-0.592,4.164 -1.185,5.354 -1.778,8.329c-1.186,7.083 -0.593,14.752 6.497,17.12c7.077,2.371 14.772,-4.728 19.515,-9.447c5.335,-5.309 8.892,-11.243 13.042,-16.597c11.265,-13.671 22.529,-27.854 34.979,-40.873c5.929,-7.114 -4.15,-17.785 -10.671,-10.671Zm-109.012,61.063l0.593,0l-0.593,0Zm59.804,5.899c0.593,0.589 0,0.589 0,0Z"/><path fill="#c9cacc" fill-rule="nonzero" d="M1041.68,285.519c-2.371,0 -4.743,1.186 -5.928,3.558c-5.929,9.485 -14.229,17.192 -21.936,24.899c-4.15,3.557 -8.3,7.114 -12.45,10.671c-3.557,3.557 -7.115,5.928 -11.265,8.3c-0.592,0 -1.778,0.593 -2.371,0.593c0,-1.186 0,-1.779 0,-2.372l0,-1.778c0,-1.186 0.593,-2.372 0.593,-3.557c1.778,-4.743 4.15,-9.486 6.521,-13.636c2.372,-4.742 4.743,-8.892 8.3,-13.042c7.115,-6.521 -3.557,-17.193 -10.078,-10.078c-4.743,4.742 -8.875,10.078 -11.823,16.006c-2.949,5.929 -5.898,12.45 -7.667,18.971c-2.375,9.486 0,25.418 12.975,24.232c8.293,0 15.408,-4.719 21.336,-9.438c-27.234,46.194 -56.271,92.436 -81.79,139.863c-13.057,22.528 -24.911,46.242 -35.522,69.955c-1.778,3.557 -1.185,8.3 2.948,10.079c2.947,1.778 8.253,1.185 10.021,-2.372c29.674,-66.991 68.844,-129.239 106.122,-191.487c13.636,-22.498 26.678,-44.982 39.721,-68.103c2.965,-5.928 -2.371,-11.856 -7.707,-11.264Zm-53.95,49.2c0.593,0 0.593,0.59 0.593,0.59c0,0 0,-0.59 -0.593,-0.59Z"/><path fill="#c9cacc" fill-rule="nonzero" d="M1783.94,158.594c-50.986,-25.508 -108.462,-37.319 -164.748,-41.449c-64.629,-5.328 -131.038,0 -193.888,11.211c-67.001,11.849 -131.038,31.424 -191.517,58.118c-29.646,13.644 -58.7,27.881 -84.789,45.677c-27.275,16.609 -53.364,36.102 -74.116,62.199c-12.408,14.235 -22.455,34.402 -18.898,55.162c1.77,17.794 14.75,31.436 28.977,42.113c6.523,4.152 13.638,8.304 21.939,12.456c-14.823,21.309 -25.496,44.988 -29.054,69.295c-0.593,4.15 2.965,7.707 7.115,7.707c3.558,0.592 7.709,-2.372 7.116,-6.522c4.15,-23.713 14.23,-45.633 29.053,-64.549c6.522,2.373 14.231,4.745 20.753,6.525c21.345,6.494 44.47,10.622 67.594,13.571c29.646,3.547 61.072,2.362 91.904,1.769c44.47,-1.18 87.754,-3.539 132.224,-7.077c42.098,-4.128 85.382,-9.45 126.887,-20.126c34.983,-9.49 71.152,-21.353 99.612,-44.486c12.424,-10.676 21.864,-27.284 21.864,-44.485c0.593,-17.794 -8.26,-33.216 -23.643,-41.52c-15.416,-9.469 -32.018,-13.008 -48.027,-15.368c-21.345,-3.539 -42.098,-4.719 -63.444,-5.309c-84.789,-1.779 -167.799,14.747 -248.437,37.878c-36.169,10.084 -71.745,23.133 -104.949,39.741c-28.461,16.014 -56.329,35.588 -77.081,60.5c-2.965,-0.593 -4.151,-1.187 -6.522,-2.373c-1.186,-0.593 -1.779,-1.186 -2.372,-1.779c-0.593,0 -1.186,0 -1.186,-0.593c0,0 -1.779,-0.594 -2.372,-0.594c-2.964,-2.372 -7.115,-4.745 -10.672,-7.71c-1.779,-0.593 -4.151,-1.78 -5.337,-2.966c-1.186,-0.593 -1.779,-1.186 -2.372,-2.373c-0.593,-0.593 -1.185,-0.593 -1.185,-1.186l-0.593,-0.593c-2.965,-2.373 -5.93,-5.931 -7.116,-9.49c-0.592,0 -0.592,-0.593 -1.185,-1.186c-1.186,-0.594 -1.186,-1.187 -1.186,-1.78c-1.186,-1.779 -2.372,-3.559 -2.965,-5.338c0,-0.593 0,-0.593 0,-1.186c-0.59,-0.594 0,-1.78 -0.59,-2.966c-1.18,-1.78 -0.59,-4.152 -1.18,-5.932c0,-0.593 0,-0.593 0,-1.186c0,-0.593 0,-1.779 -0.59,-2.965c0,-1.78 0.59,-4.152 1.18,-5.932c0,-0.593 0.59,-1.186 1.18,-1.779c-0.59,-1.187 0,-1.78 0,-2.966c1.186,-1.779 1.779,-3.559 2.965,-5.931c0,-0.594 0.593,-2.373 0.593,-2.373c0.593,-1.186 1.778,-2.372 1.186,-2.966c2.964,-2.965 4.15,-5.338 5.336,-7.71c7.708,-11.27 16.602,-20.76 26.682,-30.25c13.044,-10.677 26.089,-20.707 40.319,-29.575c26.682,-17.796 53.957,-32.626 83.01,-46.27c60.479,-27.88 123.923,-47.456 189.145,-59.32c63.444,-12.457 127.48,-17.181 192.11,-13.05c56.908,4.152 113.17,15.423 164.748,40.93c0.593,0 2.372,0.594 2.965,0.594c2.964,1.779 7.707,-1.187 7.707,-4.746c2.371,-4.152 0,-7.118 -4.15,-9.491Zm-636.128,221.168c28.461,-24.319 61.072,-40.927 96.648,-54.569c35.576,-13.642 71.744,-24.318 109.099,-33.216c41.505,-10.083 83.01,-17.794 125.701,-21.353c42.691,-4.141 84.197,-3.551 126.295,2.373c26.089,4.152 69.333,13.049 61.073,49.23c-2.966,15.422 -15.418,26.099 -28.462,35.589c-16.009,10.083 -32.018,17.201 -49.806,22.539c-37.355,13.642 -77.674,20.167 -117.401,24.912c-43.877,5.931 -86.568,8.897 -130.444,10.676c-21.939,0.594 -44.47,1.78 -66.409,1.78c-15.416,0 -30.832,0.589 -45.655,-0.593c-10.673,-1.187 -21.939,-2.373 -32.611,-4.152c-5.93,-0.593 -10.673,-1.187 -16.603,-2.373c-3.557,-0.593 -5.336,-1.186 -8.301,-1.779c-0.593,0 -1.185,0 -1.778,0l-0.593,0l-0.593,0c-1.186,-1.187 -2.965,-1.187 -4.744,-1.187c-11.265,-2.372 -20.159,-5.931 -31.425,-10.083c0,0 -0.593,0 -1.186,0c5.337,-6.524 11.859,-13.049 17.195,-17.794Zm-78.258,-36.775c0,0 0,-0.593 0,0Z"/><path fill="#c9cacc" fill-rule="nonzero" d="M1817.74,293.202c-1.186,-3.539 -5.929,-6.497 -9.486,-4.718c-11.857,4.742 -23.122,9.485 -35.572,11.856c-7.707,1.18 -15.408,1.18 -22.487,-1.185c-0.59,-0.593 -1.769,-1.779 -2.949,-2.372c1.769,-1.778 2.949,-4.149 1.769,-7.114c-1.179,-3.557 -5.903,-6.521 -9.468,-5.335c-8.318,3.557 -15.448,9.485 -21.983,15.414c-6.536,5.902 -12.443,12.982 -16.571,20.091c-4.718,8.319 -7.679,17.231 -5.308,26.738c1.769,7.095 7.667,12.994 14.154,15.354c14.854,5.919 29.114,-4.129 36.817,-14.76c6.489,-8.318 12.391,-20.202 11.798,-31.491c18.971,1.802 38.536,-5.917 54.543,-13.042c3.557,-1.77 5.928,-4.718 4.743,-9.436Zm-74.034,23.667c-0.594,5.941 -2.97,10.695 -5.347,15.448c-2.971,5.347 -7.13,10.101 -11.883,13.071c-2.377,1.783 -4.159,2.971 -6.536,3.565l-0.594,0c-0.594,0 -0.594,0 -1.188,0c0,0 -0.594,0 -1.189,0c0.595,0 -0.594,0 -1.188,0l-1.782,-0.594c-0.595,-0.594 -1.783,-1.188 -1.783,-1.188l-0.594,-0.594c0,-0.594 -0.594,-0.594 -0.594,-0.594l-0.594,-1.189c0,-0.594 -0.595,-1.188 -0.595,-1.782c-0.589,-1.189 0,-4.754 0.595,-7.13c0.594,-3.565 2.376,-6.536 4.159,-9.507c3.565,-5.347 8.318,-10.695 13.665,-15.415c1.783,-1.77 3.565,-2.95 5.348,-4.72c0.594,0.59 1.188,1.18 1.782,1.77c2.377,1.18 4.754,2.36 7.13,3.54c1.188,1.18 1.188,2.95 1.188,5.319Z"/><path fill="#c9cacc" fill-rule="nonzero" d="M1923.86,140.866c-8.3,1.186 -15.414,7.707 -21.935,12.45c-6.522,5.336 -13.043,11.264 -18.972,17.785c-12.45,12.45 -23.121,27.271 -33.2,41.499c-20.75,30.828 -37.35,63.434 -48.577,98.412c-5.312,15.413 -11.82,33.791 -5.902,49.792c2.951,6.487 8.262,11.795 15.35,12.975c7.707,1.778 14.822,-0.59 21.343,-4.719c7.115,-3.538 13.636,-9.436 19.565,-14.771c6.521,-5.336 12.45,-11.264 18.378,-17.785c12.45,-12.45 24.307,-25.492 38.536,-36.164c2.964,-2.964 2.371,-8.299 0,-10.671c-3.557,-2.964 -7.707,-2.371 -10.671,0c-14.822,11.857 -27.272,25.492 -40.908,39.128c-5.928,6.521 -13.043,12.449 -19.564,18.378c-5.929,4.743 -12.45,10.078 -19.564,12.449c-0.593,0 -1.186,0 -1.186,0c0.593,0 -1.186,0 -1.186,0c-0.593,0 -1.186,0 -1.778,0c0,0 -0.593,0 -1.186,0l0,-0.592l-0.593,0l-1.186,-0.593c-0.593,-0.593 -1.185,-1.779 -1.185,-2.372c-2.952,-7.706 -1.181,-16.599 1.185,-24.306c2.372,-9.485 5.336,-18.971 8.3,-27.863c27.865,-21.343 50.986,-48.613 72.922,-75.291c11.857,-14.821 23.121,-29.642 32.607,-45.056c4.15,-7.114 8.3,-14.821 11.264,-23.121c2.965,-8.3 -1.185,-20.749 -11.857,-19.564Zm-4.743,20.75c-4.15,8.3 -8.3,16.007 -13.635,23.713c-13.043,20.157 -28.458,39.128 -44.465,56.913c-9.485,10.671 -19.564,21.342 -29.643,31.421c6.522,-13.636 14.229,-27.271 22.529,-40.313c9.486,-14.821 19.564,-29.05 31.421,-42.685c10.079,-12.45 21.936,-24.306 35.572,-32.606c-0.593,1.186 -1.186,2.371 -1.779,3.557Z"/><path fill="#c9cacc" fill-rule="nonzero" d="M2014.56,140.866c-8.3,1.186 -15.415,7.707 -21.936,12.45c-6.522,5.336 -13.043,11.264 -18.972,17.785c-12.45,12.45 -23.121,27.271 -33.2,41.499c-20.75,30.828 -37.35,63.434 -48.577,98.412c-5.312,15.413 -11.82,33.791 -5.902,49.792c2.951,6.487 8.263,11.795 15.351,12.975c7.707,1.778 14.821,-0.59 21.343,-4.719c7.114,-3.538 13.635,-9.436 19.564,-14.771c6.521,-5.336 12.45,-11.264 18.378,-17.785c12.451,-12.45 24.308,-25.492 38.536,-36.164c2.965,-2.964 2.372,-8.299 0,-10.671c-3.557,-2.964 -7.707,-2.371 -10.671,0c-14.822,11.857 -27.272,25.492 -40.907,39.128c-5.929,6.521 -13.043,12.449 -19.565,18.378c-5.928,4.743 -12.45,10.078 -19.564,12.449c-0.593,0 -1.186,0 -1.186,0c0.593,0 -1.185,0 -1.185,0c-0.593,0 -1.186,0 -1.779,0c0,0 -0.593,0 -1.186,0l0,-0.592l-0.593,0l-1.185,-0.593c-0.593,-0.593 -1.186,-1.779 -1.186,-2.372c-2.951,-7.706 -1.181,-16.599 1.186,-24.306c2.371,-9.485 5.335,-18.971 8.3,-27.863c27.864,-21.343 50.985,-48.613 72.921,-75.291c11.857,-14.821 23.122,-29.642 32.607,-45.056c4.15,-7.114 8.3,-14.821 11.265,-23.121c2.964,-8.3 -1.186,-20.749 -11.857,-19.564Zm-4.743,20.75c-4.15,8.3 -8.3,16.007 -13.636,23.713c-13.043,20.157 -28.457,39.128 -44.464,56.913c-9.486,10.671 -19.565,21.342 -29.643,31.421c6.521,-13.636 14.228,-27.271 22.528,-40.313c9.486,-14.821 19.565,-29.05 31.422,-42.685c10.078,-12.45 21.936,-24.306 35.571,-32.606c-0.593,1.186 -1.185,2.371 -1.778,3.557Z"/><path fill="#c9cacc" fill-rule="nonzero" d="M2066.14,290.262c-12.45,13.636 -24.307,28.418 -36.164,43.216c-4.15,4.759 -7.114,10.113 -11.264,14.277c1.185,-8.328 2.371,-16.657 3.557,-25.529c0.593,-4.728 1.778,-9.456 -1.779,-13.593c-6.497,-8.293 -18.897,5.91 -23.64,10.047c-10.079,8.864 -18.972,18.367 -29.05,27.291c-1.779,1.189 -3.557,2.379 -5.336,3.569c0.593,-1.19 0.593,-1.785 1.186,-2.38c6.521,-11.898 14.228,-22.57 22.528,-32.617c4.151,-4.728 8.301,-9.46 13.043,-13.61c4.15,-3.557 8.875,-7.707 14.183,-9.485c9.458,-2.371 5.308,-16.6 -3.539,-14.228c-8.272,2.371 -15.386,7.707 -21.315,13.635c-5.929,5.336 -11.264,11.264 -16.6,17.778c-5.336,7.092 -10.672,14.184 -15.414,21.275c-4.15,7.139 -9.486,14.873 -10.672,22.597c-0.593,7.668 4.743,14.159 12.45,13.567c8.3,-0.59 16.007,-6.489 21.936,-11.798c6.521,-5.329 12.45,-11.278 18.379,-17.227c2.371,-2.38 5.335,-4.759 7.697,-7.139c-0.589,1.785 -0.589,2.975 -0.589,4.165c-0.59,2.974 -1.18,5.354 -1.18,8.328c-0.593,4.164 -1.186,5.354 -1.778,8.329c-1.186,7.083 -0.593,14.752 6.496,17.12c7.078,2.371 14.772,-4.728 19.515,-9.447c5.336,-5.309 8.893,-11.243 13.043,-16.597c11.264,-13.671 22.529,-27.854 34.979,-40.873c5.928,-7.114 -4.15,-17.785 -10.672,-10.671Zm-109.012,61.063l0.593,0l-0.593,0Zm59.805,5.899c0.593,0.589 0,0.589 0,0Z"/><path fill="#c9cacc" fill-rule="nonzero" d="M2165.74,289.077c-3.557,-2.372 -7.707,-0.593 -10.078,2.371c-10.079,14.821 -20.75,28.42 -31.422,42.618c-2.964,4.755 -7.707,8.321 -11.264,13.076c-0.593,0.595 -1.183,1.189 -1.183,1.189c0,0 0,-0.594 0,-1.189c0,-2.377 0.59,-5.349 0.59,-8.321c0,-2.378 0,-4.755 0,-7.727c-0.59,-5.318 -1.18,-10.044 -4.129,-14.771c-1.18,-2.954 -3.539,-5.908 -6.489,-7.09c-3.539,-0.593 -7.686,0 -11.243,1.182c-10.672,3.545 -19.565,12.407 -27.272,20.088c-1.779,1.185 -2.964,2.968 -4.743,4.752c6.522,-14.205 14.822,-27.8 21.936,-41.436c11.857,-23.121 21.912,-47.427 31.35,-71.733c1.776,-3.557 -1.769,-8.3 -5.309,-8.893c-4.129,-1.186 -7.668,1.186 -8.848,4.743c-9.486,23.713 -19.564,47.427 -30.829,69.955c-5.928,11.264 -12.45,22.524 -17.786,33.75c0,0 -14.228,26.096 -14.228,33.228c0,0.595 0,1.189 0,1.784c0,0.594 0,1.188 0.593,1.188c0,0.595 0,1.189 0.593,1.783c0.592,1.178 1.778,2.355 3.557,2.944c0.593,0.589 1.778,1.178 2.371,1.178l1.779,0c7.114,-1.178 17.785,-11.254 17.785,-11.254c4.743,-3.566 8.301,-7.727 12.451,-11.888c3.557,-3.566 7.114,-7.133 11.857,-10.101c1.778,-1.772 4.15,-3.545 6.521,-4.727c1.186,-0.59 3.557,-1.181 4.743,1.773c0,0.591 0,1.182 0.593,1.773l0,8.31c0,1.189 0,2.972 -0.593,4.755c0,0 -1.779,12.482 -2.371,16.643c0,0.594 0,0.594 -0.593,0.594l0,1.767c0,2.943 1.185,5.887 3.557,7.653l0.59,0c1.18,1.177 3.539,1.177 5.309,1.177c10.034,1.186 25.448,-17.729 30.191,-23.673l0,-0.594c0.593,0 0.593,-0.595 0.593,-0.595l0.593,-0.594c11.264,-15.443 23.121,-30.214 33.793,-45.61c2.371,-3.557 0.593,-8.3 -2.965,-10.078Z"/><path fill="#c9cacc" fill-rule="nonzero" d="M2232.74,290.262c-12.45,13.636 -24.307,28.418 -36.164,43.216c-4.15,4.759 -7.114,10.113 -11.264,14.277c1.185,-8.328 2.371,-16.657 3.557,-25.529c0.593,-4.728 1.778,-9.456 -1.779,-13.593c-6.496,-8.293 -18.897,5.91 -23.64,10.047c-10.078,8.864 -18.971,18.367 -29.05,27.291c-1.779,1.189 -3.557,2.379 -5.336,3.569c0.593,-1.19 0.593,-1.785 1.186,-2.38c6.521,-11.898 14.229,-22.57 22.529,-32.617c4.15,-4.728 8.3,-9.46 13.043,-13.61c4.15,-3.557 8.874,-7.707 14.182,-9.485c9.458,-2.371 5.308,-16.6 -3.539,-14.228c-8.272,2.371 -15.386,7.707 -21.315,13.635c-5.928,5.336 -11.264,11.264 -16.6,17.778c-5.336,7.092 -10.671,14.184 -15.414,21.275c-4.15,7.139 -9.486,14.873 -10.672,22.597c-0.593,7.668 4.743,14.159 12.45,13.567c8.3,-0.59 16.008,-6.489 21.936,-11.798c6.522,-5.329 12.45,-11.278 18.379,-17.227c2.371,-2.38 5.335,-4.759 7.698,-7.139c-0.59,1.785 -0.59,2.975 -0.59,4.165c-0.59,2.974 -1.18,5.354 -1.18,8.328c-0.593,4.164 -1.185,5.354 -1.778,8.329c-1.186,7.083 -0.593,14.752 6.496,17.12c7.078,2.371 14.772,-4.728 19.515,-9.447c5.336,-5.309 8.893,-11.243 13.043,-16.597c11.265,-13.671 22.529,-27.854 34.979,-40.873c5.928,-7.114 -4.15,-17.785 -10.672,-10.671Zm-109.011,61.063l0.592,0l-0.592,0Zm59.804,5.899c0.593,0.589 0,0.589 0,0Z"/><path fill="#c9cacc" fill-rule="nonzero" d="M2348.34,140.866c-8.3,1.186 -15.415,7.707 -21.936,12.45c-6.521,5.336 -13.043,11.264 -18.971,17.785c-12.45,12.45 -23.122,27.271 -33.2,41.499c-20.751,30.828 -37.351,63.434 -48.578,98.412c-5.312,15.413 -11.82,33.791 -5.902,49.792c2.951,6.487 8.263,11.795 15.351,12.975c7.707,1.778 14.821,-0.59 21.343,-4.719c7.114,-3.538 13.636,-9.436 19.564,-14.771c6.522,-5.336 12.45,-11.264 18.379,-17.785c12.45,-12.45 24.307,-25.492 38.535,-36.164c2.965,-2.964 2.372,-8.299 0,-10.671c-3.557,-2.964 -7.707,-2.371 -10.671,0c-14.821,11.857 -27.271,25.492 -40.907,39.128c-5.929,6.521 -13.043,12.449 -19.565,18.378c-5.928,4.743 -12.45,10.078 -19.564,12.449c-0.593,0 -1.186,0 -1.186,0c0.593,0 -1.185,0 -1.185,0c-0.593,0 -1.186,0 -1.779,0c0,0 -0.593,0 -1.186,0l0,-0.592l-0.592,0l-1.186,-0.593c-0.593,-0.593 -1.186,-1.779 -1.186,-2.372c-2.951,-7.706 -1.18,-16.599 1.186,-24.306c2.371,-9.485 5.336,-18.971 8.3,-27.863c27.864,-21.343 50.986,-48.613 72.921,-75.291c11.858,-14.821 23.122,-29.642 32.608,-45.056c4.15,-7.114 8.3,-14.821 11.264,-23.121c2.964,-8.3 -1.186,-20.749 -11.857,-19.564Zm-4.743,20.75c-4.15,8.3 -8.3,16.007 -13.636,23.713c-13.043,20.157 -28.457,39.128 -44.464,56.913c-9.486,10.671 -19.565,21.342 -29.643,31.421c6.521,-13.636 14.229,-27.271 22.529,-40.313c9.485,-14.821 19.564,-29.05 31.421,-42.685c10.079,-12.45 21.936,-24.306 35.572,-32.606c-0.593,1.186 -1.186,2.371 -1.779,3.557Z"/><path fill="#c9cacc" fill-rule="nonzero" d="M2439.05,140.866c-8.3,1.186 -15.414,7.707 -21.936,12.45c-6.521,5.336 -13.043,11.264 -18.971,17.785c-12.45,12.45 -23.122,27.271 -33.2,41.499c-20.75,30.828 -37.35,63.434 -48.578,98.412c-5.311,15.413 -11.82,33.791 -5.902,49.792c2.951,6.487 8.263,11.795 15.351,12.975c7.707,1.778 14.822,-0.59 21.343,-4.719c7.114,-3.538 13.636,-9.436 19.564,-14.771c6.522,-5.336 12.45,-11.264 18.379,-17.785c12.45,-12.45 24.307,-25.492 38.536,-36.164c2.964,-2.964 2.371,-8.299 0,-10.671c-3.557,-2.964 -7.707,-2.371 -10.672,0c-14.821,11.857 -27.271,25.492 -40.907,39.128c-5.928,6.521 -13.043,12.449 -19.564,18.378c-5.929,4.743 -12.45,10.078 -19.565,12.449c-0.592,0 -1.185,0 -1.185,0c0.593,0 -1.186,0 -1.186,0c-0.593,0 -1.186,0 -1.779,0c0,0 -0.592,0 -1.185,0l0,-0.592l-0.593,0l-1.186,-0.593c-0.593,-0.593 -1.186,-1.779 -1.186,-2.372c-2.951,-7.706 -1.18,-16.599 1.186,-24.306c2.372,-9.485 5.336,-18.971 8.3,-27.863c27.865,-21.343 50.986,-48.613 72.922,-75.291c11.857,-14.821 23.121,-29.642 32.607,-45.056c4.15,-7.114 8.3,-14.821 11.264,-23.121c2.965,-8.3 -1.185,-20.749 -11.857,-19.564Zm-4.743,20.75c-4.15,8.3 -8.3,16.007 -13.635,23.713c-13.043,20.157 -28.458,39.128 -44.465,56.913c-9.486,10.671 -19.564,21.342 -29.643,31.421c6.522,-13.636 14.229,-27.271 22.529,-40.313c9.486,-14.821 19.564,-29.05 31.421,-42.685c10.079,-12.45 21.936,-24.306 35.572,-32.606c-0.593,1.186 -1.186,2.371 -1.779,3.557Z"/><path fill="#c9cacc" fill-rule="nonzero" d="M2432.58,246.321c0.59,0.59 1.18,0.59 1.77,0.59c0.59,0 1.179,0 1.769,0c1.77,0 2.95,0 4.13,-0.59c1.179,-1.18 2.952,-2.949 2.952,-4.719c0.593,-1.77 0.593,-4.129 -0.593,-5.309c0,-0.59 -0.59,-1.18 -1.18,-1.77c-0.589,-1.179 -1.769,-1.769 -2.949,-1.769c-0.59,0 -1.18,-0.59 -1.77,-0.59c-4.129,-1.186 -8.258,1.18 -8.848,5.309c-0.595,1.769 -0.595,4.129 0.59,5.899c1.18,1.179 2.359,2.359 4.129,2.949Zm26.035,43.274c-9.485,10.079 -17.776,20.75 -26.625,31.421c-4.724,5.335 -9.484,10.671 -14.244,15.414c-3.57,3.557 -7.139,8.299 -10.709,10.671c1.19,-5.336 2.975,-10.671 5.355,-15.414c4.79,-13.043 10.094,-26.085 15.988,-38.535c1.778,-4.15 1.185,-8.299 -2.358,-10.671c-3.536,-1.778 -8.25,-0.593 -10.018,2.964c-7.777,14.821 -13.687,30.235 -19.587,45.649c-1.77,5.336 -4.13,11.264 -4.72,17.192c-0.593,7.707 4.72,14.821 12.39,14.821c6.52,0.593 11.874,-4.149 16.634,-8.892c5.95,-5.336 11.269,-10.671 16.578,-16.6c10.645,-12.449 20.724,-25.492 31.988,-37.349c6.521,-7.114 -4.15,-17.785 -10.672,-10.671Zm-52.168,60.47Z"/></svg>